<svg xmlns="http://www.w3.org/2000/svg" fill="none" viewBox="0 0 48 48" id="Code-Working-Outline--Streamline-Ionic-Outline" height="48" width="48"><desc>Code Working Outline Streamline Icon: https://streamlinehq.com</desc><path fill="#000000" d="M24.0003 26.4387c1.3463 0 2.4377 -1.0914 2.4377 -2.4377s-1.0914 -2.4378 -2.4377 -2.4378 -2.4378 1.0915 -2.4378 2.4378c0 1.3463 1.0915 2.4377 2.4378 2.4377Z" stroke-width="3"></path><path fill="#000000" d="M32.438 26.4387c1.3463 0 2.4378 -1.0914 2.4378 -2.4377s-1.0915 -2.4378 -2.4378 -2.4378c-1.3463 0 -2.4378 1.0915 -2.4378 2.4378 0 1.3463 1.0915 2.4377 2.4378 2.4377Z" stroke-width="3"></path><path fill="#000000" d="M15.5628 26.4387c1.3463 0 2.4377 -1.0914 2.4377 -2.4377s-1.0914 -2.4378 -2.4377 -2.4378 -2.4378 1.0915 -2.4378 2.4378c0 1.3463 1.0915 2.4377 2.4378 2.4377Z" stroke-width="3"></path><path stroke="#000000" stroke-linecap="round" stroke-linejoin="round" d="m15 34.501 -12 -10.5 12 -10.5" stroke-width="3"></path><path stroke="#000000" stroke-linecap="round" stroke-linejoin="round" d="m33.0007 34.501 12 -10.5 -12 -10.5" stroke-width="3"></path></svg>