<svg xmlns="http://www.w3.org/2000/svg" fill="none" viewBox="0 0 48 48" id="Paper-Plane-Outline--Streamline-Ionic-Outline" height="48" width="48"><desc>Paper Plane Outline Streamline Icon: https://streamlinehq.com</desc><path stroke="#000000" stroke-linecap="round" stroke-linejoin="round" d="M2.6991 18.116 44.6999 2.2198c0.1515 -0.058 0.3166 -0.0708 0.4752 -0.037 0.1587 0.0338 0.3041 0.1129 0.4188 0.2276 0.1148 0.1147 0.1939 0.2602 0.2276 0.4188 0.0338 0.1587 0.021 0.3237 -0.037 0.4753L29.8883 45.3052c-0.0631 0.1595 -0.1737 0.2958 -0.3167 0.3906s-0.3117 0.1436 -0.4833 0.1396c-0.1715 -0.0039 -0.3377 -0.0601 -0.4762 -0.1614 -0.1387 -0.1011 -0.243 -0.2423 -0.2987 -0.4045l-7.0772 -17.4398c-0.0826 -0.2471 -0.2214 -0.4716 -0.4057 -0.6559 -0.1842 -0.1842 -0.4088 -0.3231 -0.6559 -0.4057L2.7348 19.6973c-0.1642 -0.0546 -0.3076 -0.1588 -0.4105 -0.298 -0.1028 -0.1393 -0.1601 -0.3069 -0.1641 -0.48 -0.0039 -0.1731 0.0458 -0.3432 0.1423 -0.487 0.0964 -0.1438 0.235 -0.2543 0.3966 -0.3163Z" stroke-width="3"></path><path stroke="#000000" stroke-linecap="round" stroke-linejoin="round" d="M45.4224 2.5822 20.957 27.0476" stroke-width="3"></path></svg>